<mxfile host="app.diagrams.net" modified="2022-08-30T11:06:26.476Z" agent="5.0 (Macintosh; Intel Mac OS X 10_15_7) AppleWebKit/605.1.15 (KHTML, like Gecko) Version/15.6.1 Safari/605.1.15" etag="V2rvCGnQN1iteauBQZaz" version="20.2.7" type="github">
  <diagram id="eoDmwnrt7AnTwp-9dPMA" name="Page-1">
    <mxGraphModel dx="1452" dy="907" grid="1" gridSize="10" guides="1" tooltips="1" connect="1" arrows="1" fold="1" page="1" pageScale="1" pageWidth="827" pageHeight="1169" math="0" shadow="0">
      <root>
        <mxCell id="0" />
        <mxCell id="1" parent="0" />
        <mxCell id="MaDMwwRkFXLWG0-b9X80-67" value="" style="group" vertex="1" connectable="0" parent="1">
          <mxGeometry x="173" y="570" width="210" height="229" as="geometry" />
        </mxCell>
        <mxCell id="MaDMwwRkFXLWG0-b9X80-52" value="" style="rounded=0;whiteSpace=wrap;html=1;glass=0;fillStyle=auto;fillColor=none;" vertex="1" parent="MaDMwwRkFXLWG0-b9X80-67">
          <mxGeometry width="210" height="229" as="geometry" />
        </mxCell>
        <mxCell id="MaDMwwRkFXLWG0-b9X80-42" value="Bookmark" style="swimlane;fontStyle=0;childLayout=stackLayout;horizontal=1;startSize=30;horizontalStack=0;resizeParent=1;resizeParentMax=0;resizeLast=0;collapsible=1;marginBottom=0;fillStyle=auto;swimlaneLine=1;glass=0;" vertex="1" parent="MaDMwwRkFXLWG0-b9X80-67">
          <mxGeometry x="20" y="54" width="170" height="150" as="geometry">
            <mxRectangle x="20" y="54" width="70" height="30" as="alternateBounds" />
          </mxGeometry>
        </mxCell>
        <mxCell id="MaDMwwRkFXLWG0-b9X80-43" value="Id: string" style="text;strokeColor=none;fillColor=none;align=left;verticalAlign=middle;spacingLeft=4;spacingRight=4;overflow=hidden;points=[[0,0.5],[1,0.5]];portConstraint=eastwest;rotatable=0;" vertex="1" parent="MaDMwwRkFXLWG0-b9X80-42">
          <mxGeometry y="30" width="170" height="30" as="geometry" />
        </mxCell>
        <mxCell id="MaDMwwRkFXLWG0-b9X80-44" value="ArticleId: string" style="text;strokeColor=none;fillColor=none;align=left;verticalAlign=middle;spacingLeft=4;spacingRight=4;overflow=hidden;points=[[0,0.5],[1,0.5]];portConstraint=eastwest;rotatable=0;" vertex="1" parent="MaDMwwRkFXLWG0-b9X80-42">
          <mxGeometry y="60" width="170" height="30" as="geometry" />
        </mxCell>
        <mxCell id="MaDMwwRkFXLWG0-b9X80-45" value="DisplayName: string" style="text;strokeColor=none;fillColor=none;align=left;verticalAlign=middle;spacingLeft=4;spacingRight=4;overflow=hidden;points=[[0,0.5],[1,0.5]];portConstraint=eastwest;rotatable=0;" vertex="1" parent="MaDMwwRkFXLWG0-b9X80-42">
          <mxGeometry y="90" width="170" height="30" as="geometry" />
        </mxCell>
        <mxCell id="MaDMwwRkFXLWG0-b9X80-50" value="Created: DateTime" style="text;strokeColor=none;fillColor=none;align=left;verticalAlign=middle;spacingLeft=4;spacingRight=4;overflow=hidden;points=[[0,0.5],[1,0.5]];portConstraint=eastwest;rotatable=0;" vertex="1" parent="MaDMwwRkFXLWG0-b9X80-42">
          <mxGeometry y="120" width="170" height="30" as="geometry" />
        </mxCell>
        <mxCell id="MaDMwwRkFXLWG0-b9X80-65" value="Bookmarks Sub Collection" style="text;html=1;strokeColor=none;fillColor=none;align=center;verticalAlign=middle;whiteSpace=wrap;rounded=0;glass=0;fillStyle=auto;" vertex="1" parent="MaDMwwRkFXLWG0-b9X80-67">
          <mxGeometry x="20" y="9" width="160" height="30" as="geometry" />
        </mxCell>
        <mxCell id="MaDMwwRkFXLWG0-b9X80-70" style="edgeStyle=orthogonalEdgeStyle;rounded=0;orthogonalLoop=1;jettySize=auto;html=1;exitX=0.5;exitY=1;exitDx=0;exitDy=0;entryX=0.5;entryY=0;entryDx=0;entryDy=0;" edge="1" parent="1" source="MaDMwwRkFXLWG0-b9X80-37" target="MaDMwwRkFXLWG0-b9X80-52">
          <mxGeometry relative="1" as="geometry" />
        </mxCell>
        <mxCell id="MaDMwwRkFXLWG0-b9X80-71" value="Has sub collection" style="edgeLabel;html=1;align=center;verticalAlign=middle;resizable=0;points=[];" vertex="1" connectable="0" parent="MaDMwwRkFXLWG0-b9X80-70">
          <mxGeometry x="-0.0197" y="-3" relative="1" as="geometry">
            <mxPoint x="3" y="-4" as="offset" />
          </mxGeometry>
        </mxCell>
        <mxCell id="MaDMwwRkFXLWG0-b9X80-72" value="" style="group" vertex="1" connectable="0" parent="1">
          <mxGeometry x="10" y="110" width="536" height="390" as="geometry" />
        </mxCell>
        <mxCell id="MaDMwwRkFXLWG0-b9X80-1" value="User" style="swimlane;fontStyle=0;childLayout=stackLayout;horizontal=1;startSize=30;horizontalStack=0;resizeParent=1;resizeParentMax=0;resizeLast=0;collapsible=1;marginBottom=0;fillStyle=auto;swimlaneLine=1;glass=0;" vertex="1" parent="MaDMwwRkFXLWG0-b9X80-72">
          <mxGeometry x="30" y="30" width="170" height="300" as="geometry">
            <mxRectangle x="150" y="170" width="70" height="30" as="alternateBounds" />
          </mxGeometry>
        </mxCell>
        <mxCell id="MaDMwwRkFXLWG0-b9X80-2" value="Id: string" style="text;strokeColor=none;fillColor=none;align=left;verticalAlign=middle;spacingLeft=4;spacingRight=4;overflow=hidden;points=[[0,0.5],[1,0.5]];portConstraint=eastwest;rotatable=0;" vertex="1" parent="MaDMwwRkFXLWG0-b9X80-1">
          <mxGeometry y="30" width="170" height="30" as="geometry" />
        </mxCell>
        <mxCell id="MaDMwwRkFXLWG0-b9X80-3" value="Email: string" style="text;strokeColor=none;fillColor=none;align=left;verticalAlign=middle;spacingLeft=4;spacingRight=4;overflow=hidden;points=[[0,0.5],[1,0.5]];portConstraint=eastwest;rotatable=0;" vertex="1" parent="MaDMwwRkFXLWG0-b9X80-1">
          <mxGeometry y="60" width="170" height="30" as="geometry" />
        </mxCell>
        <mxCell id="MaDMwwRkFXLWG0-b9X80-4" value="DisplayName: string" style="text;strokeColor=none;fillColor=none;align=left;verticalAlign=middle;spacingLeft=4;spacingRight=4;overflow=hidden;points=[[0,0.5],[1,0.5]];portConstraint=eastwest;rotatable=0;" vertex="1" parent="MaDMwwRkFXLWG0-b9X80-1">
          <mxGeometry y="90" width="170" height="30" as="geometry" />
        </mxCell>
        <mxCell id="MaDMwwRkFXLWG0-b9X80-10" value="ProfilePictureUri: string" style="text;strokeColor=none;fillColor=none;align=left;verticalAlign=middle;spacingLeft=4;spacingRight=4;overflow=hidden;points=[[0,0.5],[1,0.5]];portConstraint=eastwest;rotatable=0;" vertex="1" parent="MaDMwwRkFXLWG0-b9X80-1">
          <mxGeometry y="120" width="170" height="30" as="geometry" />
        </mxCell>
        <mxCell id="MaDMwwRkFXLWG0-b9X80-11" value="EmailValidated: true" style="text;strokeColor=none;fillColor=none;align=left;verticalAlign=middle;spacingLeft=4;spacingRight=4;overflow=hidden;points=[[0,0.5],[1,0.5]];portConstraint=eastwest;rotatable=0;" vertex="1" parent="MaDMwwRkFXLWG0-b9X80-1">
          <mxGeometry y="150" width="170" height="30" as="geometry" />
        </mxCell>
        <mxCell id="MaDMwwRkFXLWG0-b9X80-12" value="PasswordInfo: PasswordInfo" style="text;strokeColor=none;fillColor=none;align=left;verticalAlign=middle;spacingLeft=4;spacingRight=4;overflow=hidden;points=[[0,0.5],[1,0.5]];portConstraint=eastwest;rotatable=0;" vertex="1" parent="MaDMwwRkFXLWG0-b9X80-1">
          <mxGeometry y="180" width="170" height="30" as="geometry" />
        </mxCell>
        <mxCell id="MaDMwwRkFXLWG0-b9X80-13" value="SocialLinks: SocialLinks" style="text;strokeColor=none;fillColor=none;align=left;verticalAlign=middle;spacingLeft=4;spacingRight=4;overflow=hidden;points=[[0,0.5],[1,0.5]];portConstraint=eastwest;rotatable=0;" vertex="1" parent="MaDMwwRkFXLWG0-b9X80-1">
          <mxGeometry y="210" width="170" height="30" as="geometry" />
        </mxCell>
        <mxCell id="MaDMwwRkFXLWG0-b9X80-14" value="Created: DateTime" style="text;strokeColor=none;fillColor=none;align=left;verticalAlign=middle;spacingLeft=4;spacingRight=4;overflow=hidden;points=[[0,0.5],[1,0.5]];portConstraint=eastwest;rotatable=0;" vertex="1" parent="MaDMwwRkFXLWG0-b9X80-1">
          <mxGeometry y="240" width="170" height="30" as="geometry" />
        </mxCell>
        <mxCell id="MaDMwwRkFXLWG0-b9X80-15" value="Update: DateTime" style="text;strokeColor=none;fillColor=none;align=left;verticalAlign=middle;spacingLeft=4;spacingRight=4;overflow=hidden;points=[[0,0.5],[1,0.5]];portConstraint=eastwest;rotatable=0;" vertex="1" parent="MaDMwwRkFXLWG0-b9X80-1">
          <mxGeometry y="270" width="170" height="30" as="geometry" />
        </mxCell>
        <mxCell id="MaDMwwRkFXLWG0-b9X80-37" value="" style="rounded=0;whiteSpace=wrap;html=1;glass=0;fillStyle=auto;fillColor=none;" vertex="1" parent="MaDMwwRkFXLWG0-b9X80-72">
          <mxGeometry width="536" height="390" as="geometry" />
        </mxCell>
        <mxCell id="MaDMwwRkFXLWG0-b9X80-16" value="PasswordInfo" style="swimlane;fontStyle=0;childLayout=stackLayout;horizontal=1;startSize=30;horizontalStack=0;resizeParent=1;resizeParentMax=0;resizeLast=0;collapsible=1;marginBottom=0;fillStyle=auto;swimlaneLine=1;glass=0;" vertex="1" parent="MaDMwwRkFXLWG0-b9X80-72">
          <mxGeometry x="230" y="30" width="170" height="120" as="geometry">
            <mxRectangle x="230" y="30" width="90" height="30" as="alternateBounds" />
          </mxGeometry>
        </mxCell>
        <mxCell id="MaDMwwRkFXLWG0-b9X80-17" value="Iterations: string" style="text;strokeColor=none;fillColor=none;align=left;verticalAlign=middle;spacingLeft=4;spacingRight=4;overflow=hidden;points=[[0,0.5],[1,0.5]];portConstraint=eastwest;rotatable=0;" vertex="1" parent="MaDMwwRkFXLWG0-b9X80-16">
          <mxGeometry y="30" width="170" height="30" as="geometry" />
        </mxCell>
        <mxCell id="MaDMwwRkFXLWG0-b9X80-18" value="Has: string" style="text;strokeColor=none;fillColor=none;align=left;verticalAlign=middle;spacingLeft=4;spacingRight=4;overflow=hidden;points=[[0,0.5],[1,0.5]];portConstraint=eastwest;rotatable=0;" vertex="1" parent="MaDMwwRkFXLWG0-b9X80-16">
          <mxGeometry y="60" width="170" height="30" as="geometry" />
        </mxCell>
        <mxCell id="MaDMwwRkFXLWG0-b9X80-19" value="Salt: string" style="text;strokeColor=none;fillColor=none;align=left;verticalAlign=middle;spacingLeft=4;spacingRight=4;overflow=hidden;points=[[0,0.5],[1,0.5]];portConstraint=eastwest;rotatable=0;" vertex="1" parent="MaDMwwRkFXLWG0-b9X80-16">
          <mxGeometry y="90" width="170" height="30" as="geometry" />
        </mxCell>
        <mxCell id="MaDMwwRkFXLWG0-b9X80-26" value="Social Links" style="swimlane;fontStyle=0;childLayout=stackLayout;horizontal=1;startSize=30;horizontalStack=0;resizeParent=1;resizeParentMax=0;resizeLast=0;collapsible=1;marginBottom=0;fillStyle=auto;swimlaneLine=1;glass=0;" vertex="1" parent="MaDMwwRkFXLWG0-b9X80-72">
          <mxGeometry x="336" y="180" width="170" height="180" as="geometry">
            <mxRectangle x="340" y="165" width="90" height="30" as="alternateBounds" />
          </mxGeometry>
        </mxCell>
        <mxCell id="MaDMwwRkFXLWG0-b9X80-27" value="LinkedIn: string" style="text;strokeColor=none;fillColor=none;align=left;verticalAlign=middle;spacingLeft=4;spacingRight=4;overflow=hidden;points=[[0,0.5],[1,0.5]];portConstraint=eastwest;rotatable=0;" vertex="1" parent="MaDMwwRkFXLWG0-b9X80-26">
          <mxGeometry y="30" width="170" height="30" as="geometry" />
        </mxCell>
        <mxCell id="MaDMwwRkFXLWG0-b9X80-28" value="StackOverflow: string" style="text;strokeColor=none;fillColor=none;align=left;verticalAlign=middle;spacingLeft=4;spacingRight=4;overflow=hidden;points=[[0,0.5],[1,0.5]];portConstraint=eastwest;rotatable=0;" vertex="1" parent="MaDMwwRkFXLWG0-b9X80-26">
          <mxGeometry y="60" width="170" height="30" as="geometry" />
        </mxCell>
        <mxCell id="MaDMwwRkFXLWG0-b9X80-29" value="GitHub: string" style="text;strokeColor=none;fillColor=none;align=left;verticalAlign=middle;spacingLeft=4;spacingRight=4;overflow=hidden;points=[[0,0.5],[1,0.5]];portConstraint=eastwest;rotatable=0;" vertex="1" parent="MaDMwwRkFXLWG0-b9X80-26">
          <mxGeometry y="90" width="170" height="30" as="geometry" />
        </mxCell>
        <mxCell id="MaDMwwRkFXLWG0-b9X80-30" value="Facebook: string" style="text;strokeColor=none;fillColor=none;align=left;verticalAlign=middle;spacingLeft=4;spacingRight=4;overflow=hidden;points=[[0,0.5],[1,0.5]];portConstraint=eastwest;rotatable=0;" vertex="1" parent="MaDMwwRkFXLWG0-b9X80-26">
          <mxGeometry y="120" width="170" height="30" as="geometry" />
        </mxCell>
        <mxCell id="MaDMwwRkFXLWG0-b9X80-31" value="Twitter: string" style="text;strokeColor=none;fillColor=none;align=left;verticalAlign=middle;spacingLeft=4;spacingRight=4;overflow=hidden;points=[[0,0.5],[1,0.5]];portConstraint=eastwest;rotatable=0;" vertex="1" parent="MaDMwwRkFXLWG0-b9X80-26">
          <mxGeometry y="150" width="170" height="30" as="geometry" />
        </mxCell>
        <mxCell id="MaDMwwRkFXLWG0-b9X80-33" style="edgeStyle=orthogonalEdgeStyle;rounded=0;orthogonalLoop=1;jettySize=auto;html=1;entryX=0.5;entryY=1;entryDx=0;entryDy=0;" edge="1" parent="MaDMwwRkFXLWG0-b9X80-72" source="MaDMwwRkFXLWG0-b9X80-12" target="MaDMwwRkFXLWG0-b9X80-16">
          <mxGeometry relative="1" as="geometry" />
        </mxCell>
        <mxCell id="MaDMwwRkFXLWG0-b9X80-35" style="edgeStyle=orthogonalEdgeStyle;rounded=0;orthogonalLoop=1;jettySize=auto;html=1;entryX=0;entryY=0.5;entryDx=0;entryDy=0;" edge="1" parent="MaDMwwRkFXLWG0-b9X80-72" source="MaDMwwRkFXLWG0-b9X80-13" target="MaDMwwRkFXLWG0-b9X80-29">
          <mxGeometry relative="1" as="geometry" />
        </mxCell>
        <mxCell id="MaDMwwRkFXLWG0-b9X80-39" value="User Collection" style="text;html=1;strokeColor=none;fillColor=none;align=center;verticalAlign=middle;whiteSpace=wrap;rounded=0;glass=0;fillStyle=auto;" vertex="1" parent="MaDMwwRkFXLWG0-b9X80-72">
          <mxGeometry x="416" y="10" width="100" height="30" as="geometry" />
        </mxCell>
      </root>
    </mxGraphModel>
  </diagram>
</mxfile>
